<svg xmlns="http://www.w3.org/2000/svg" width="160cm" height="160cm" viewBox="0 0 160 160"><path d="M160 80a80 80 0 0 1-80 80A80 80 0 0 1 0 80 80 80 0 0 1 80 0a80 80 0 0 1 80 80" style="fill:#dfd26b;stroke-width:2;stroke-linecap:round;stroke-linejoin:round;fill-opacity:1;stroke:none"/><path d="M150.148 79.905c1.983 47.906-53.284 84.746-96.89 64.585C8.153 127.984-4.955 62.96 30.524 30.475 60.502-1.973 118.519 5.83 139.946 43.584c6.65 10.873 10.22 23.584 10.202 36.321" style="fill:#b7ae70;fill-opacity:1;stroke:none;stroke-width:1.7502;stroke-linecap:round;stroke-linejoin:round;stroke-dasharray:none"/><path d="M73.666 30c25.41 16.535 46.47 36.574 23.967 62.687 34.608 6.681 59.69-55.949-23.967-62.687m23.967 62.687c-7.596-1.467-14.848-5.515-20.64-10.485-1.822 7.148-5.368 13.913-10.53 19.22 5.172.558 11.492 4.027 9.038 9.776 1.09 8.169 7.917 13.983 14.046 18.802-3.188-5.514-4.337-12.232-3.05-18.479 1.58-7.485 6.285-13.196 11.136-18.834m-31.17 8.735C33.302 96.7 42.459 67.205 47.575 42.389c-40.355 69.572-1.33 80.035 18.888 59.033" style="fill:#fffb97;fill-opacity:1;stroke:none;stroke-width:12.2357;stroke-linecap:butt;stroke-linejoin:round;stroke-miterlimit:4;stroke-dasharray:none;stroke-opacity:1;paint-order:stroke fill markers"/></svg>