<?xml version="1.0" encoding="UTF-8" standalone="no"?>
<svg
   width="160cm"
   height="160cm"
   viewBox="0 0 160 160"
   version="1.1"
   id="svg2"
   sodipodi:docname="air.svg"
   inkscape:version="1.3.2 (091e20ef0f, 2023-11-25, custom)"
   inkscape:export-filename="air.png"
   inkscape:export-xdpi="4.0640001"
   inkscape:export-ydpi="4.0640001"
   xmlns:inkscape="http://www.inkscape.org/namespaces/inkscape"
   xmlns:sodipodi="http://sodipodi.sourceforge.net/DTD/sodipodi-0.dtd"
   xmlns="http://www.w3.org/2000/svg"
   xmlns:svg="http://www.w3.org/2000/svg">
  <defs
     id="defs2" />
  <sodipodi:namedview
     id="namedview2"
     pagecolor="#505050"
     bordercolor="#eeeeee"
     borderopacity="1"
     inkscape:showpageshadow="0"
     inkscape:pageopacity="0"
     inkscape:pagecheckerboard="0"
     inkscape:deskcolor="#d1d1d1"
     inkscape:document-units="cm"
     inkscape:zoom="0.079999999"
     inkscape:cx="1325"
     inkscape:cy="3656.25"
     inkscape:window-width="1872"
     inkscape:window-height="1052"
     inkscape:window-x="1920"
     inkscape:window-y="0"
     inkscape:window-maximized="1"
     inkscape:current-layer="svg2" />
  <path
     id="path3"
     style="fill:#dfd26b;stroke-width:2;stroke-linecap:round;stroke-linejoin:round;fill-opacity:1;stroke:none"
     d="M 159.99998,79.999992 A 79.999992,79.999992 0 0 1 79.999992,159.99998 79.999992,79.999992 0 0 1 0,79.999992 79.999992,79.999992 0 0 1 79.999992,0 79.999992,79.999992 0 0 1 159.99998,79.999992 Z" />
  <path
     style="fill:#b7ae70;fill-opacity:1;stroke:none;stroke-width:1.7502;stroke-linecap:round;stroke-linejoin:round;stroke-dasharray:none"
     d="M 150.1475,79.905482 C 152.13143,127.81085 96.863575,164.65105 53.257543,144.48994 8.1533052,127.98416 -4.9553233,62.959566 30.523947,30.474676 60.502272,-1.9725252 118.51892,5.829863 139.94611,43.583593 c 6.64896,10.873586 10.21906,23.58481 10.20139,36.321889 z"
     id="path3-5" />
  <path
     id="path3-6-7"
     style="fill:#fffb97;fill-opacity:1;stroke:none;stroke-width:12.2357;stroke-linecap:butt;stroke-linejoin:round;stroke-miterlimit:4;stroke-dasharray:none;stroke-opacity:1;paint-order:stroke fill markers"
     inkscape:label="path3-6-7"
     d="M 73.665764,29.999999 C 99.075488,46.534995 120.13637,66.573765 97.633398,92.686922 132.2409,99.368449 157.32341,36.738285 73.665764,29.999999 Z M 97.633398,92.686922 C 90.037146,91.220344 82.785045,87.172384 76.993514,82.201877 c -1.822029,7.148484 -5.368669,13.913268 -10.530882,19.219903 5.172101,0.55827 11.492043,4.02689 9.037926,9.77579 1.090189,8.16894 7.917284,13.98326 14.04656,18.80241 -3.188193,-5.51436 -4.336704,-12.23167 -3.049951,-18.47902 1.579189,-7.48525 6.284699,-13.196123 11.136231,-18.834038 z M 66.462632,101.42178 C 33.301601,96.699684 42.458919,67.204742 47.574657,42.388648 7.2202393,111.96131 46.245381,122.42431 66.462632,101.42178 Z" />
</svg>
