<svg xmlns="http://www.w3.org/2000/svg" width="160cm" height="160cm" viewBox="0 0 160 160"><path d="M160 80a80 80 0 0 1-80 80A80 80 0 0 1 0 80 80 80 0 0 1 80 0a80 80 0 0 1 80 80" style="fill:#2e3a63;stroke-width:2;stroke-linecap:round;stroke-linejoin:round;fill-opacity:1;stroke:none"/><path d="M150 80a70 70 0 0 1-70 70 70 70 0 0 1-70-70 70 70 0 0 1 70-70 70 70 0 0 1 70 70" style="fill:#1f2746;fill-opacity:1;stroke:none;stroke-width:1.75046;stroke-linecap:round;stroke-linejoin:round;stroke-dasharray:none"/><g style="stroke:none;stroke-opacity:1;fill:#6071c4;fill-opacity:1"><path d="M54.405 111.004c-3.428-14.412-5.606-30.247-6.402-44.982-22.036 13.799-40.863 36.378-17.958 59.5 2.299 2.32 12.99-5.288 24.36-14.518m48-6.534c-5.98 3.745-12.135 6.808-17.821 9.085-4.738-10.027-6.252-20.93.674-28.941 2.372-2.744-14.92 13.457-30.853 26.39 10.694 44.96 30.85 65.4 56.284 28.87-1.861.623-5.207-1.04-8.989-4.113 1.092-8.86 1.334-19.668.705-31.291m-6.402-44.982c3.427 14.412 5.606 30.247 6.402 44.982 22.036-13.799 40.863-36.378 17.958-59.5-2.299-2.32-12.99 5.288-24.36 14.518" style="fill:#6071c4;fill-opacity:1;stroke:none;stroke-width:.0199749px;stroke-linecap:butt;stroke-linejoin:miter;stroke-opacity:1" transform="matrix(.9 0 0 .71827 12.316 19.093)"/><path d="M64.56 11.64c-7.628.129-16.021 6.31-24.842 18.977 1.862-.622 5.208 1.04 8.99 4.114-1.092 8.86-1.334 19.668-.705 31.291 5.98-3.745 12.135-6.808 17.821-9.085 4.738 10.027 6.252 20.93-.674 28.941-2.372 2.744 14.92-13.456 30.853-26.39-6.091-25.609-16.174-46.557-29.927-47.793a14 14 0 0 0-1.515-.055" style="fill:#6071c4;fill-opacity:1;stroke:none;stroke-width:.0199749px;stroke-linecap:butt;stroke-linejoin:miter;stroke-opacity:1" transform="matrix(.9 0 0 .71827 12.316 19.093)"/></g></svg>