<svg xmlns="http://www.w3.org/2000/svg" width="160cm" height="160cm" viewBox="0 0 160 160"><path d="M160 80c0 44.183-35.817 80-80 80S0 124.183 0 80 35.817 0 80 0s80 35.817 80 80" style="fill:#97df6b;fill-opacity:1;stroke:none;stroke-width:2;stroke-linecap:round;stroke-linejoin:round"/><path d="M150 80c0 38.66-31.34 70-70 70s-70-31.34-70-70 31.34-70 70-70 70 31.34 70 70" style="fill:#70b774;fill-opacity:1;stroke:none;stroke-width:1.75046;stroke-linecap:round;stroke-linejoin:round;stroke-dasharray:none"/><path d="M58.678 92.836c-2.775-7.472-5.508-16.465-8.179-27.114-43.252 22.442-5.777 61.67 1.644 64.278.962-12 3.451-24.82 6.535-37.164m42.804-1.963c4.322 14.81 7.422 29.016 6.866 38.17 5.71-4.058 45.09-40.075 1.037-63.321-2.591 9.67-5.231 18.031-7.903 25.151M79.556 30c.09.13-12.6 29.704-20.878 62.836 13.85 37.293 28.786 35.393 42.804-1.963C92.946 61.625 79.56 29.987 79.556 30" style="fill:#97ff99;fill-opacity:1;stroke:none;stroke-width:.00982876px;stroke-linecap:butt;stroke-linejoin:miter;stroke-opacity:1"/></svg>