<?xml version="1.0" encoding="UTF-8" standalone="no"?>
<svg
   width="160cm"
   height="160cm"
   viewBox="0 0 160 160"
   version="1.1"
   id="svg2"
   sodipodi:docname="earth.svg"
   inkscape:version="1.3.2 (091e20ef0f, 2023-11-25, custom)"
   inkscape:export-filename="earth.png"
   inkscape:export-xdpi="4.0640001"
   inkscape:export-ydpi="4.0640001"
   xmlns:inkscape="http://www.inkscape.org/namespaces/inkscape"
   xmlns:sodipodi="http://sodipodi.sourceforge.net/DTD/sodipodi-0.dtd"
   xmlns="http://www.w3.org/2000/svg"
   xmlns:svg="http://www.w3.org/2000/svg">
  <defs
     id="defs2" />
  <sodipodi:namedview
     id="namedview2"
     pagecolor="#505050"
     bordercolor="#eeeeee"
     borderopacity="1"
     inkscape:showpageshadow="0"
     inkscape:pageopacity="0"
     inkscape:pagecheckerboard="0"
     inkscape:deskcolor="#d1d1d1"
     inkscape:document-units="cm"
     inkscape:zoom="0.056568544"
     inkscape:cx="1732.4116"
     inkscape:cy="3827.2154"
     inkscape:window-width="1872"
     inkscape:window-height="1052"
     inkscape:window-x="1920"
     inkscape:window-y="0"
     inkscape:window-maximized="1"
     inkscape:current-layer="svg2"
     showguides="false" />
  <path
     id="path3"
     style="fill:#97df6b;fill-opacity:1;stroke:none;stroke-width:2;stroke-linecap:round;stroke-linejoin:round"
     d="m 159.99998,79.999992 c 0,44.182768 -35.81722,79.999988 -79.999988,79.999988 C 35.817218,159.99998 2.2091389e-6,124.18277 0,79.999992 0,35.817216 35.817216,0 79.999992,0 124.18277,2.2091389e-6 159.99998,35.817218 159.99998,79.999992 Z"
     sodipodi:nodetypes="sssss" />
  <path
     id="path3-5"
     style="fill:#70b774;fill-opacity:1;stroke:none;stroke-width:1.75046;stroke-linecap:round;stroke-linejoin:round;stroke-dasharray:none"
     d="m 149.99999,79.999995 c 0,38.659925 -31.34007,69.999995 -69.999997,69.999995 -38.65993,0 -69.9999976,-31.34006 -70.0000015,-69.999995 C 9.9999904,41.34006 41.340059,9.9999907 79.999993,9.999991 c 38.659937,2.2e-6 69.999997,31.340071 69.999997,70.000004 z"
     sodipodi:nodetypes="sssss" />
  <path
     id="path5"
     style="fill:#97ff99;fill-opacity:1;stroke:none;stroke-width:0.00982876px;stroke-linecap:butt;stroke-linejoin:miter;stroke-opacity:1"
     d="M 79.556348,29.999996 C 79.646288,30.129691 66.955751,59.703823 58.678166,92.835955 72.527916,130.1288 87.463946,128.22946 101.48195,90.873336 92.946393,61.625353 79.55972,29.986611 79.556348,29.999996 Z m 21.925602,60.87334 c 4.32189,14.809414 7.42209,29.015924 6.86654,38.169864 5.71034,-4.05867 45.08956,-40.075693 1.03626,-63.321404 -2.59113,9.670393 -5.23087,18.031191 -7.9028,25.15154 z M 58.678166,92.835955 C 55.90321,85.363903 53.170477,76.371127 50.499117,65.721796 7.2469226,88.16376 44.721689,127.39154 52.142977,129.99999 c 0.961705,-11.99975 3.451377,-24.82066 6.535189,-37.164035 z"
     sodipodi:nodetypes="cccccccccccc" />
</svg>
