<svg xmlns="http://www.w3.org/2000/svg" width="160cm" height="160cm" viewBox="0 0 160 160"><path d="M160 80a80 80 0 0 1-80 80A80 80 0 0 1 0 80 80 80 0 0 1 80 0a80 80 0 0 1 80 80" style="fill:#df6b6b;stroke-width:2;stroke-linecap:round;stroke-linejoin:round;fill-opacity:1;stroke:none"/><path d="M150 80a70 70 0 0 1-70 70 70 70 0 0 1-70-70 70 70 0 0 1 70-70 70 70 0 0 1 70 70" style="fill:#b77070;fill-opacity:1;stroke:none;stroke-width:1.75046;stroke-linecap:round;stroke-linejoin:round;stroke-dasharray:none"/><path d="M72.84 25c22.477 23.621 11.046 56.353-11.506 62.472 28.522-66.708-9.362-34.618-18.675-13.724-9.422 22.85 6.532 54.345 42.506 61.252-4.934-11.656-14.402-34.989 5.618-38.07 62.339-5.295 9.713-66.105-17.943-71.93" style="fill:#ffa397;fill-opacity:1;stroke:none;stroke-width:15.3809;stroke-linecap:butt;stroke-linejoin:round;stroke-miterlimit:4;stroke-dasharray:none;stroke-opacity:1;paint-order:stroke fill markers"/></svg>