<svg xmlns="http://www.w3.org/2000/svg" width="160cm" height="160cm" viewBox="0 0 160 160"><path d="M160 80a80 80 0 0 1-80 80A80 80 0 0 1 0 80 80 80 0 0 1 80 0a80 80 0 0 1 80 80" style="fill:#eee;stroke-width:2;stroke-linecap:round;stroke-linejoin:round;fill-opacity:1;stroke:none"/><path d="M150 80a70 70 0 0 1-70 70 70 70 0 0 1-70-70 70 70 0 0 1 70-70 70 70 0 0 1 70 70" style="fill:#cfd5e1;fill-opacity:1;stroke:none;stroke-width:1.75046;stroke-linecap:round;stroke-linejoin:round;stroke-dasharray:none"/><path d="M57.395 64.694s-39.22 37.65-31.079 60.228c11.348 31.478 66.697-19.146 66.697-19.146s-25.342 16.957-33.955 5.002c-7.233-10.04-1.663-46.084-1.663-46.084" style="fill:#fff;fill-opacity:1;stroke:none;stroke-width:.0199749px;stroke-linecap:butt;stroke-linejoin:miter;stroke-opacity:1" transform="matrix(.9 0 0 .9 12.316 3.288)"/><path d="M110.14 35.236c-20.3-.217-52.745 29.458-52.745 29.458s25.342-16.957 33.955-5.002c7.233 10.04 1.663 46.084 1.663 46.084s39.22-37.65 31.079-60.228c-2.66-7.378-7.737-10.245-13.951-10.312" style="fill:#fff;fill-opacity:1;stroke:none;stroke-width:.0199749px;stroke-linecap:butt;stroke-linejoin:miter;stroke-opacity:1" transform="matrix(.9 0 0 .9 12.316 3.288)"/></svg>