<svg xmlns="http://www.w3.org/2000/svg" width="160cm" height="160cm" viewBox="0 0 160 160"><path d="M160 80a80 80 0 0 1-80 80A80 80 0 0 1 0 80 80 80 0 0 1 80 0a80 80 0 0 1 80 80" style="fill:#6b9adf;stroke-width:2;stroke-linecap:round;stroke-linejoin:round;fill-opacity:1;stroke:none"/><path d="M150 80a70 70 0 0 1-70 70 70 70 0 0 1-70-70 70 70 0 0 1 70-70 70 70 0 0 1 70 70" style="fill:#7086b7;fill-opacity:1;stroke:none;stroke-width:1.75046;stroke-linecap:round;stroke-linejoin:round;stroke-dasharray:none"/><path d="M86.31 30.012c-2.65.093-5.403.698-8.22 1.939-38.202 16.821 1.942 34.793 8.018 45.546 8.977-7.984-10.212-24.785-1.126-30.056 9.14-5.302 28.307 14.471 28.307 14.471 5.05-8.03-8.432-32.544-26.98-31.9m2.069 23.842s12.697 20.427 9.96 29.794c-3.525 12.06-30.53 24.685-30.53 24.685 53.233-7.255 63.318-30.69 20.57-54.48m-.038 27.912c-19.708 2.644-46.44 9.061-43.047 24.318C48.374 121.597 66.596 130 66.596 130s-7.868-19.379-4.187-28.228c4.07-9.783 25.932-20.006 25.932-20.006" style="fill:#97bcff;stroke-width:9.12344"/></svg>