<svg xmlns="http://www.w3.org/2000/svg" width="160cm" height="160cm" viewBox="0 0 160 160"><path d="M80.867 0c-9.885-.028-19.431 6.353-21.433 16.656l.003-.025s-2.625 12.92-7.109 24a57.6 57.6 0 0 1-5.213 9.912c-6.583-.43-12.71 1.104-17.908 3.566-6.498 3.079-11.657 7.603-15.684 12.424C5.443 76.21.193 88.873.003 102.766c-.194 14.25 6.015 30.201 20.224 41.113C34.347 154.724 54.163 160.007 79.68 160c25.507-.008 45.338-5.307 59.521-16.053 14.265-10.807 20.717-26.583 20.799-40.81.08-13.879-4.916-26.61-12.838-36.371-3.945-4.861-9.054-9.452-15.539-12.58-5.208-2.513-11.337-4.066-17.926-3.643a57.6 57.6 0 0 1-5.195-9.897c-4.473-11.077-7.086-23.998-7.086-23.998l.004.026C99.315 5.79 90.288.027 80.867 0m-.453 45.19c.695 1.983 1.31 3.924 2.123 5.939 2.969 7.352 6.289 14.197 11.611 20.092 2.693 2.981 4.887 4.98 8.979 6.697v-.002c1.377.578 9.447 1.238 11.187.768 1.212-.328 3.516-.063 5.143.722h.002c2.077 1.002 3.978 2.56 5.961 5.004 3.935 4.848 6.62 11.697 6.58 18.567-.037 6.52-2.283 13.027-9.707 18.652-7.506 5.686-21.068 10.365-42.621 10.37-21.562.007-35.032-4.676-42.39-10.327-7.272-5.584-9.369-12.012-9.28-18.526.094-6.87 2.927-13.773 7.012-18.664 2.056-2.462 4.04-4.054 6.18-5.068 1.719-.814 4.036-1.07 5.292-.73 1.734.468 9.802-.185 11.186-.766 4.095-1.718 6.29-3.715 8.984-6.695 5.327-5.893 8.652-12.737 11.627-20.088.816-2.017 1.433-3.96 2.131-5.946" style="color:#000;fill:#9592ce;stroke-linejoin:round;-inkscape-stroke:none;paint-order:stroke fill markers"/><path d="M73.176 19.327s-2.708 13.8-7.87 26.556c-2.58 6.378-5.874 12.454-9.037 15.952-1.58 1.75-3.078 2.781-4.012 3.173s-1.145.423-2.119.16c-5.177-1.4-10.618-.452-14.937 1.594-4.32 2.046-7.891 5.105-10.933 8.746-6.082 7.283-10.123 17.066-10.265 27.448-.141 10.382 4.01 21.572 14.75 29.82S56.138 146.006 79.677 146c23.53-.007 40.227-4.996 51.071-13.212S145.94 113.43 146 103.056s-3.78-20.164-9.708-27.469c-2.964-3.652-6.47-6.726-10.75-8.791s-9.719-3.023-14.879-1.628c-.974.263-1.185.23-2.117-.16-.932-.391-2.426-1.421-4.005-3.17-3.158-3.497-6.446-9.572-9.021-15.95-5.15-12.756-7.845-26.556-7.845-26.556-1.35-6.987-13.172-6.829-14.498-.005" style="color:#000;fill:#cbcbcb;fill-opacity:.6;stroke-linejoin:round;-inkscape-stroke:none;paint-order:stroke fill markers"/><text xml:space="preserve" x="79.035" y="136.392" style="font-size:102.4px;line-height:1.25;font-family:Iosevka;-inkscape-font-specification:Iosevka;stroke-width:.0261224" transform="scale(1.00828 .99178)"><tspan x="79.035" y="136.392" style="font-style:normal;font-variant:normal;font-weight:700;font-stretch:expanded;font-size:102.4px;font-family:Inconsolata;-inkscape-font-specification:&quot;Inconsolata Bold Expanded&quot;;text-align:center;text-anchor:middle;fill:#000;fill-opacity:1;stroke-width:.0261224">N</tspan></text><path d="M53.128 72.596v63.796h10.957v-45.67l29.9 45.67h10.65V77.307q0-1.74.103-2.458.205-.717.819-1.33v-.923H93.679l.511 43.008-28.672-43.008z" style="font-weight:700;font-stretch:expanded;font-size:102.4px;line-height:1.25;font-family:Inconsolata;-inkscape-font-specification:&quot;Inconsolata Bold Expanded&quot;;text-align:center;text-anchor:middle;stroke-width:.0261224" transform="scale(1.00828 .99178)"/></svg>