<?xml version="1.0" encoding="UTF-8" standalone="no"?>
<svg
   width="160cm"
   height="160cm"
   viewBox="0 0 160 160"
   version="1.1"
   id="svg2"
   sodipodi:docname="aqua_regia.svg"
   inkscape:version="1.3.2 (091e20ef0f, 2023-11-25, custom)"
   xmlns:inkscape="http://www.inkscape.org/namespaces/inkscape"
   xmlns:sodipodi="http://sodipodi.sourceforge.net/DTD/sodipodi-0.dtd"
   xmlns="http://www.w3.org/2000/svg"
   xmlns:svg="http://www.w3.org/2000/svg">
  <defs
     id="defs2">
    <inkscape:path-effect
       effect="fill_between_many"
       method="originald"
       linkedpaths="#path1,0,1|"
       id="path-effect1" />
  </defs>
  <sodipodi:namedview
     id="namedview2"
     pagecolor="#505050"
     bordercolor="#eeeeee"
     borderopacity="1"
     inkscape:showpageshadow="0"
     inkscape:pageopacity="0"
     inkscape:pagecheckerboard="0"
     inkscape:deskcolor="#d1d1d1"
     inkscape:document-units="cm"
     inkscape:zoom="0.080000004"
     inkscape:cx="2249.9999"
     inkscape:cy="3718.7498"
     inkscape:window-width="1870"
     inkscape:window-height="1052"
     inkscape:window-x="0"
     inkscape:window-y="0"
     inkscape:window-maximized="1"
     inkscape:current-layer="svg2"
     showguides="true" />
  <path
     style="color:#000000;fill:#dcb575;stroke-linejoin:round;-inkscape-stroke:none;paint-order:stroke fill markers;fill-opacity:1"
     d="M 80.867187,0 C 70.981828,-0.0278845 61.435545,6.3533009 59.433594,16.65625 l 0.0039,-0.02539 c 0,0 -2.62569,12.920094 -7.109375,24 -1.702223,4.206475 -3.783223,7.759477 -5.212891,9.91211 C 40.531871,50.113523 34.404625,51.647221 29.207031,54.109375 22.708579,57.187771 17.549653,61.71228 13.523438,66.533203 5.4425914,76.209094 0.19359301,88.872175 0.00390625,102.76563 -0.19066747,117.01683 6.0179581,132.96703 20.226562,143.87891 34.347688,154.72364 54.162745,160.00704 79.679687,160 c 25.507003,-0.008 45.338153,-5.30746 59.521483,-16.05273 14.26526,-10.8074 20.71728,-26.5828 20.79883,-40.81055 0.0796,-13.878346 -4.91622,-26.610148 -12.83789,-36.371095 -3.94508,-4.861048 -9.05441,-9.451994 -15.53906,-12.580078 -5.20772,-2.512132 -11.33742,-4.065912 -17.92578,-3.642578 -1.42657,-2.153391 -3.50008,-5.697732 -5.19532,-9.896485 -4.47252,-11.07752 -7.08593,-23.998046 -7.08593,-23.998047 l 0.004,0.02539 C 99.315266,5.7895815 90.287525,0.02657278 80.867187,0 Z m -0.453125,45.189453 c 0.695245,1.983663 1.309623,3.924768 2.123047,5.939453 2.968544,7.352462 6.28873,14.196714 11.611328,20.091797 2.692233,2.981763 4.886721,4.97984 8.978513,6.697266 v -0.002 c 1.37688,0.577948 9.44661,1.237949 11.1875,0.767578 1.21178,-0.327409 3.51522,-0.06236 5.14258,0.722656 h 0.002 c 2.07703,1.00192 3.97782,2.560347 5.96094,5.003906 3.9347,4.848263 6.61948,11.697328 6.58008,18.566401 -0.0374,6.51971 -2.28285,13.02776 -9.70703,18.65235 -7.50613,5.68663 -21.06795,10.36468 -42.621095,10.37109 -21.562124,0.006 -35.032124,-4.67695 -42.390625,-10.32812 -7.27102,-5.58398 -9.368221,-12.01232 -9.279297,-18.5254 0.09381,-6.870806 2.927311,-13.773443 7.011719,-18.664055 2.056419,-2.462322 4.039425,-4.054491 6.179687,-5.06836 1.719383,-0.814489 4.03676,-1.069884 5.292969,-0.730468 1.73385,0.468473 9.801509,-0.185019 11.185547,-0.765625 4.095473,-1.718056 6.290721,-3.71538 8.984375,-6.695313 5.326689,-5.892819 8.652035,-12.736377 11.626953,-20.08789 0.816138,-2.016809 1.433164,-3.959615 2.130859,-5.945313 z"
     id="path1"
     sodipodi:nodetypes="sccscsssscccsscsccscscccsccssccsssssssscc" />
  <path
     style="color:#000000;fill:#91886b;fill-opacity:0.80000001;stroke-linejoin:round;-inkscape-stroke:none;paint-order:stroke fill markers"
     d="m 73.175815,19.327105 c 0,0 -2.707399,13.799527 -7.869558,26.556053 -2.581076,6.378265 -5.874687,12.453934 -9.036869,15.952198 -1.581091,1.749128 -3.078571,2.780732 -4.012423,3.172484 -0.933844,0.391749 -1.144929,0.422857 -2.118657,0.159763 -5.17725,-1.398844 -10.618335,-0.451517 -14.937702,1.594612 -4.319362,2.046134 -7.891096,5.104388 -10.932416,8.746014 -6.082633,7.283259 -10.123124,17.065549 -10.264871,27.447691 -0.141749,10.38215 4.010463,21.5719 14.750286,29.81983 10.739824,8.24796 27.3832,13.23052 50.922757,13.22403 23.530098,-0.007 40.226158,-4.99589 51.070898,-13.21185 10.84473,-8.216 15.19238,-19.35784 15.25184,-29.73158 0.0595,-10.373722 -3.77978,-20.164384 -9.70797,-27.468996 -2.9641,-3.652307 -6.46954,-6.726659 -10.75038,-8.791663 -4.28081,-2.065003 -9.71837,-3.02238 -14.87878,-1.628088 -0.97414,0.263203 -1.18523,0.23129 -2.11686,-0.159763 -0.93169,-0.391053 -2.42651,-1.420844 -4.00532,-3.169444 C 101.38222,58.341206 98.094131,52.265785 95.519,45.887725 90.368748,33.131604 87.674434,19.331668 87.674434,19.331668 86.323368,12.344619 74.501763,12.503178 73.175815,19.327105 Z"
     id="path3"
     sodipodi:nodetypes="csssssssscccsssscscc" />
</svg>
