<svg xmlns="http://www.w3.org/2000/svg" width="160cm" height="160cm" viewBox="0 0 160 160"><path d="m79.603 160.132-69.282-40v-80l69.282-40 69.282 40v80z" style="fill:#747474;fill-opacity:1;stroke:none;stroke-width:.0386011;stroke-linecap:round;stroke-linejoin:round"/><g style="fill:#ff8111;fill-opacity:1;stroke:none"><path d="m71.714 38.36 35.899-12.977-33.206-12.25-39.04 32.24 34.204 18.325Z" style="fill:#c9c9c9;fill-opacity:1;stroke:none;stroke-width:.0229922px;stroke-linecap:butt;stroke-linejoin:miter;stroke-opacity:1" transform="matrix(1.03554 .05778 -.02465 1.16007 -5.731 3.69)"/><path d="m52.007 95.772 32.327 14.977 48.22-18.989-36.463-.52-12.216-29.523-19.55 21.805-33.73-17.883Z" style="fill:#c9c9c9;fill-opacity:1;stroke:none;stroke-width:.0216473px;stroke-linecap:butt;stroke-linejoin:miter;stroke-opacity:1" transform="matrix(1.03554 .05778 -.02465 1.16007 -5.731 3.69)"/><path d="m117.199 52.596-12.008 28.89 32.071-19.17-14.941-34.7-27.138 25.46Z" style="fill:#c9c9c9;fill-opacity:1;stroke:none;stroke-width:.020525px;stroke-linecap:butt;stroke-linejoin:miter;stroke-opacity:1" transform="matrix(1.03554 .05778 -.02465 1.16007 -5.731 3.69)"/></g></svg>