<svg xmlns="http://www.w3.org/2000/svg" width="160cm" height="160cm" viewBox="0 0 160 160"><path d="M150.104 132.25c19.975 0 7.258-59.353-16.052-66.668-12.41-3.895-9.213-33.068-53.603-37.648-22.393-2.311-35.366 17.815-52.611 22.311C7.15 55.64-13.092 132.25 10.793 132.25Z" style="display:inline;fill:#6c6c6c;fill-opacity:1;stroke:none;stroke-width:2.03411;stroke-linecap:butt;stroke-linejoin:miter;stroke-dasharray:none;stroke-opacity:1"/><path d="M52.984 71.554c-15.63-.204-33.355 4.206-46.54 8.728-8.357 23.462-10.223 51.968 4.35 51.968h139.31c13.645 0 12.028-27.692 2.207-47.577-20.263-1.966-53.017-4.434-87.257-11.853-3.776-.818-7.844-1.21-12.07-1.266" style="display:inline;fill:#4b4b4b;fill-opacity:1;stroke:none;stroke-width:2.03411;stroke-linecap:butt;stroke-linejoin:miter;stroke-dasharray:none;stroke-opacity:1"/></svg>