<?xml version="1.0" encoding="UTF-8" standalone="no"?>
<svg
   width="160cm"
   height="160cm"
   viewBox="0 0 160 160"
   version="1.1"
   id="svg2"
   sodipodi:docname="gunpowder.svg"
   inkscape:version="1.3.2 (091e20ef0f, 2023-11-25, custom)"
   xmlns:inkscape="http://www.inkscape.org/namespaces/inkscape"
   xmlns:sodipodi="http://sodipodi.sourceforge.net/DTD/sodipodi-0.dtd"
   xmlns="http://www.w3.org/2000/svg"
   xmlns:svg="http://www.w3.org/2000/svg">
  <defs
     id="defs2" />
  <sodipodi:namedview
     id="namedview2"
     pagecolor="#505050"
     bordercolor="#eeeeee"
     borderopacity="1"
     inkscape:showpageshadow="0"
     inkscape:pageopacity="0"
     inkscape:pagecheckerboard="0"
     inkscape:deskcolor="#d1d1d1"
     inkscape:document-units="cm"
     inkscape:zoom="0.040000001"
     inkscape:cx="-1350"
     inkscape:cy="6837.4998"
     inkscape:window-width="1870"
     inkscape:window-height="1052"
     inkscape:window-x="0"
     inkscape:window-y="0"
     inkscape:window-maximized="1"
     inkscape:current-layer="svg2" />
  <path
     style="display:inline;fill:#6c6c6c;fill-opacity:1;stroke:none;stroke-width:2.03411;stroke-linecap:butt;stroke-linejoin:miter;stroke-dasharray:none;stroke-opacity:1"
     d="m 150.10424,132.25044 c 19.97449,-1e-5 7.25775,-59.353243 -16.05261,-66.668855 C 121.64193,61.686984 124.8386,32.514202 80.448719,27.933621 58.056417,25.622965 45.083405,45.749399 27.837605,50.245401 7.150492,55.638554 -13.091498,132.25043 10.793195,132.25043 Z"
     id="path1-9"
     sodipodi:nodetypes="ssssss" />
  <path
     id="path1-9-53"
     style="display:inline;fill:#4b4b4b;fill-opacity:1;stroke:none;stroke-width:2.03411;stroke-linecap:butt;stroke-linejoin:miter;stroke-dasharray:none;stroke-opacity:1"
     d="m 52.984313,71.554082 c -15.629876,-0.20395 -33.355604,4.205719 -46.5395938,8.727858 -8.3579416,23.46193 -10.2235269,51.96849 4.3484548,51.96849 l 139.311046,1e-5 c 13.64502,-1e-5 12.02823,-27.69202 2.20646,-47.577565 C 132.04793,82.707277 99.293994,80.238517 65.054082,72.819769 61.277519,72.001502 57.209737,71.609218 52.984313,71.554082 Z" />
</svg>
