<svg xmlns="http://www.w3.org/2000/svg" width="160cm" height="160cm" viewBox="0 0 160 160"><path d="M6047.244 3023.622a3023.62 3023.62 0 0 1-3023.622 3023.622A3023.62 3023.62 0 0 1 0 3023.622 3023.62 3023.62 0 0 1 3023.622 0a3023.62 3023.62 0 0 1 3023.622 3023.622" style="fill:#aca3fa;stroke-width:1058.27;stroke-linejoin:round;paint-order:stroke fill markers;fill-opacity:1" transform="scale(.02646)"/><path d="M1.472 65.59A80 80 0 0 0 0 80a80 80 0 0 0 80 80 80 80 0 0 0 55.413-22.564c-8.866-5.807-17.289-12.993-24.449-21.723-17.681-21.56-55.221-12.879-83.655-27-12.886-6.4-20.685-14.588-25.837-23.124" style="fill:#9e8cd3;fill-opacity:1;stroke:none;stroke-width:.0264583px;stroke-linecap:butt;stroke-linejoin:miter;stroke-opacity:1"/><path d="M46.018 111.815c68.083-4.954 50.862-57.62 53.448-69.962 30.695 21.48 12.635 98.709-53.448 69.962" style="fill:#c6d4f6;fill-opacity:1;stroke:none;stroke-width:.0282268px;stroke-linecap:butt;stroke-linejoin:miter;stroke-opacity:1"/><path d="M80 0a80 80 0 0 0-46.037 14.785C48.626 27.594 69.638 38.961 91.72 27.782c33.524-16.973 66.844 44.91 68.265 51.614A80 80 0 0 0 80 0" style="fill:#bcbbfa;fill-opacity:1;stroke:none;stroke-width:.0264583px;stroke-linecap:butt;stroke-linejoin:miter;stroke-opacity:1"/></svg>