<?xml version="1.0" encoding="UTF-8" standalone="no"?>
<svg
   width="160cm"
   height="160cm"
   viewBox="0 0 160 160"
   version="1.1"
   id="svg2"
   sodipodi:docname="salt.svg"
   inkscape:version="1.3.2 (091e20ef0f, 2023-11-25, custom)"
   xmlns:inkscape="http://www.inkscape.org/namespaces/inkscape"
   xmlns:sodipodi="http://sodipodi.sourceforge.net/DTD/sodipodi-0.dtd"
   xmlns="http://www.w3.org/2000/svg"
   xmlns:svg="http://www.w3.org/2000/svg">
  <defs
     id="defs2" />
  <sodipodi:namedview
     id="namedview2"
     pagecolor="#505050"
     bordercolor="#eeeeee"
     borderopacity="1"
     inkscape:showpageshadow="0"
     inkscape:pageopacity="0"
     inkscape:pagecheckerboard="0"
     inkscape:deskcolor="#d1d1d1"
     inkscape:document-units="cm"
     inkscape:zoom="0.040000001"
     inkscape:cx="-2874.9999"
     inkscape:cy="3737.4999"
     inkscape:window-width="1870"
     inkscape:window-height="1052"
     inkscape:window-x="0"
     inkscape:window-y="0"
     inkscape:window-maximized="1"
     inkscape:current-layer="svg2" />
  <g
     id="g1"
     style="fill:#ff8111;fill-opacity:1"
     inkscape:label="g1"
     transform="matrix(1.1434626,0.05778165,-0.0272166,1.1600687,-16.955763,2.2183163)">
    <path
       style="display:inline;fill:#dcdce5;fill-opacity:1;stroke:none;stroke-width:1.76508;stroke-linecap:butt;stroke-linejoin:miter;stroke-dasharray:none;stroke-opacity:1"
       d="M 148.5919,104.68883 C 166.03964,103.81977 153.7152,53.270089 133.20365,47.985556 122.28395,45.172238 124.4784,19.915474 85.609917,17.902925 66.002863,16.887702 55.083382,34.780935 40.111294,39.402311 22.151602,44.945857 6.040237,111.78915 26.903544,110.74998 Z"
       id="path1-9"
       sodipodi:nodetypes="ssssss" />
    <path
       id="path1-9-53"
       style="display:inline;fill:#cccce2;fill-opacity:1;stroke:none;stroke-width:1.76508;stroke-linecap:butt;stroke-linejoin:miter;stroke-dasharray:none;stroke-opacity:1"
       d="m 62.513659,56.654941 c -13.656894,0.504425 -29.049968,5.072349 -40.473524,9.539508 -6.819857,20.564297 -7.865252,45.189531 4.86339,44.555531 l 121.688355,-6.06115 c 11.91894,-0.59367 9.93917,-24.366069 0.95232,-41.060143 -17.73982,-0.810781 -46.40101,-1.511317 -76.461646,-6.409126 -3.315601,-0.540214 -6.876853,-0.700988 -10.568895,-0.56462 z" />
  </g>
</svg>
