<svg xmlns="http://www.w3.org/2000/svg" width="160cm" height="160cm" viewBox="0 0 160 160"><g style="fill:#ff8111;fill-opacity:1"><path d="M148.592 104.689c17.448-.87 5.123-51.419-15.388-56.703-10.92-2.814-8.726-28.07-47.594-30.083-19.607-1.015-30.527 16.878-45.499 21.5-17.96 5.543-34.07 72.386-13.207 71.347Z" style="display:inline;fill:#dcdce5;fill-opacity:1;stroke:none;stroke-width:1.76508;stroke-linecap:butt;stroke-linejoin:miter;stroke-dasharray:none;stroke-opacity:1" transform="matrix(1.14346 .05778 -.02722 1.16007 -16.956 2.218)"/><path d="M62.514 56.655c-13.657.504-29.05 5.072-40.474 9.54-6.82 20.564-7.865 45.189 4.864 44.555l121.688-6.061c11.919-.594 9.939-24.366.952-41.06-17.74-.811-46.4-1.512-76.461-6.41-3.316-.54-6.877-.7-10.57-.564" style="display:inline;fill:#cccce2;fill-opacity:1;stroke:none;stroke-width:1.76508;stroke-linecap:butt;stroke-linejoin:miter;stroke-dasharray:none;stroke-opacity:1" transform="matrix(1.14346 .05778 -.02722 1.16007 -16.956 2.218)"/></g></svg>