<svg xmlns="http://www.w3.org/2000/svg" width="160cm" height="160cm" viewBox="0 0 160 160"><g style="fill:#ff8111;fill-opacity:1"><path d="M154.974 104.37c19.266-.959 5.784-51.45-16.85-56.63-12.05-2.757-9.564-28.028-52.473-29.84-21.646-.913-33.746 17.04-50.288 21.739-19.843 5.637-37.797 72.572-14.76 71.425Z" style="display:inline;fill:#f0e27c;fill-opacity:1;stroke:none;stroke-width:1.85478;stroke-linecap:butt;stroke-linejoin:miter;stroke-dasharray:none;stroke-opacity:1" transform="matrix(1.03554 .05778 -.02465 1.16007 -7.805 2.218)"/><path d="M60.054 56.777c-15.08.576-32.086 5.224-44.71 9.751-7.58 20.602-8.796 45.236 5.26 44.536l134.37-6.693c13.16-.656 11.034-24.42 1.153-41.07-19.584-.72-51.227-1.271-84.405-6.014-3.66-.523-7.591-.665-11.668-.51" style="display:inline;fill:#ecd244;fill-opacity:1;stroke:none;stroke-width:1.85478;stroke-linecap:butt;stroke-linejoin:miter;stroke-dasharray:none;stroke-opacity:1" transform="matrix(1.03554 .05778 -.02465 1.16007 -7.805 2.218)"/></g></svg>