<svg xmlns="http://www.w3.org/2000/svg" width="160cm" height="160cm" viewBox="0 0 160 160"><path d="M6047.244 3023.622a3023.62 3023.62 0 0 1-3023.622 3023.622A3023.62 3023.62 0 0 1 0 3023.622 3023.62 3023.62 0 0 1 3023.622 0a3023.62 3023.62 0 0 1 3023.622 3023.622" style="fill:#f7ac62;stroke-width:1058.27;stroke-linejoin:round;paint-order:stroke fill markers;fill-opacity:1" transform="scale(.02646)"/><path d="M158.77 66.162c-17.77 50.692-46.453 79.934-92.593 92.493A80 80 0 0 0 80 160c44.183 0 80-35.817 80-80-.008-4.64-.42-9.27-1.23-13.838" style="fill:#d59559;fill-opacity:1;stroke-width:28.0001;stroke-linejoin:round;paint-order:stroke fill markers"/><path d="M62.662 11.785s-45.03 8.579-53.584 54.299a8 8 0 0 0 6.393 9.334 8 8 0 0 0 9.336-6.393c6.791-36.3 40.605-41.478 40.605-41.478a8 8 0 0 0 6.506-9.258 8 8 0 0 0-9.256-6.504" style="color:#000;fill:#feb66e;stroke-linecap:round;stroke-linejoin:bevel;-inkscape-stroke:none;fill-opacity:1"/><path d="m119.356 77.142-15.463 18.153 11.619 3.83-22.823 6.912 7.704 9.503-22.936-6.524 1.342 12.16-15.767-17.89-5.445 10.956-3.593-23.574-10.504 6.273 9.723-21.774-12.227-.402 19.95-13.061-10.068-6.949 23.845-.201-4.714-11.29 20.168 12.723 2.138-12.046 10.09 21.607 8.31-8.978-3.194 23.631Z" style="fill:#ff7c4a;stroke-width:28.0001;stroke-linecap:round;stroke-linejoin:bevel;stroke-opacity:.3;paint-order:stroke fill markers;fill-opacity:1"/></svg>