<svg xmlns="http://www.w3.org/2000/svg" width="160cm" height="160cm" viewBox="0 0 160 160"><path d="M.02 0h159.96a.02.02 0 0 1 .02.02v159.96a.02.02 0 0 1-.02.02H.02a.02.02 0 0 1-.02-.02V.02A.02.02 0 0 1 .02 0" style="fill:#7b7b7b;stroke-width:1.6;stroke-linecap:round;stroke-linejoin:round"/><g style="fill:#dffddd;fill-opacity:1"><path d="m52.895 68.487 45.253 5.776 20.988-18.034-9.415 44.209z" style="fill:#dffddd;fill-opacity:1;stroke:none;stroke-width:2.90665;stroke-linecap:butt;stroke-linejoin:miter;stroke-dasharray:none;stroke-opacity:1" transform="matrix(1.19106 .05498 -.02835 1.10383 -26.772 -9.82)"/><path d="m137.03 11.844-55.277 21 39.376 5.265 19.81 38.904Z" style="fill:#dffddd;fill-opacity:1;stroke:none;stroke-width:1.98953;stroke-linecap:butt;stroke-linejoin:miter;stroke-dasharray:none;stroke-opacity:1" transform="matrix(1.19106 .05498 -.02835 1.10383 -26.772 -9.82)"/><path d="m34.237 121.014 50.089 19.931-22.672-21.297 5.32-31.317Z" style="fill:#dffddd;fill-opacity:1;stroke:none;stroke-width:3.5888;stroke-linecap:butt;stroke-linejoin:miter;stroke-dasharray:none;stroke-opacity:1" transform="matrix(1.19106 .05498 -.02835 1.10383 -26.772 -9.82)"/><path d="m149.936 84.199-34.023 24.16-38.681-4.807 54.552 31.245z" style="fill:#dffddd;fill-opacity:1;stroke:none;stroke-width:2.89762;stroke-linecap:butt;stroke-linejoin:miter;stroke-dasharray:none;stroke-opacity:1" transform="matrix(1.19106 .05498 -.02835 1.10383 -26.772 -9.82)"/><path d="M33.424 86.848 57.58 52.737l31.697-1.835-51.45-16.972Z" style="fill:#dffddd;fill-opacity:1;stroke:none;stroke-width:3.34837;stroke-linecap:butt;stroke-linejoin:miter;stroke-dasharray:none;stroke-opacity:1" transform="matrix(1.19106 .05498 -.02835 1.10383 -26.772 -9.82)"/></g></svg>