<svg xmlns="http://www.w3.org/2000/svg" width="160cm" height="160cm" viewBox="0 0 160 160"><path d="M160 80a80 80 0 0 1-80 80A80 80 0 0 1 0 80 80 80 0 0 1 80 0a80 80 0 0 1 80 80" style="display:inline;fill:#402f1f;fill-opacity:1;stroke-width:.206084;stroke-linecap:round;stroke-linejoin:bevel;stroke-dasharray:.206084,1.2365"/><path d="M77.002 26c-3.311 0-6 2.689-6 6v10.086a38.9 38.9 0 0 0-11.444 4.747l-7.134-7.137c-2.348-2.342-6.148-2.342-8.484 0l-2.127 2.128 25.926 25.933a17.27 17.27 0 0 1 12.246-5.072c4.78 0 9.109 1.937 12.243 5.069l25.953-25.946-2.115-2.115c-2.348-2.343-6.147-2.343-8.484 0l-7.134 7.136a38.8 38.8 0 0 0-11.446-4.743V32.001c0-3.312-2.688-6-6-6z" style="fill:#f66;fill-opacity:1;stroke:none;stroke-width:.0264583px;stroke-linecap:butt;stroke-linejoin:miter;stroke-opacity:1"/><path d="m41.801 118.165 2.122 2.122a5.995 5.995 0 0 0 8.487.002l7.136-7.134a38.5 38.5 0 0 0 11.44 4.74v10.084c0 3.311 2.687 6 6 6h6c3.312 0 6-2.689 6-6v-10.083c4.105-1.021 7.95-2.598 11.44-4.753l7.136 7.146a6.01 6.01 0 0 0 8.487-.003l2.12-2.12-25.93-25.932a17.26 17.26 0 0 1-12.254 5.086c-4.787 0-9.12-1.944-12.255-5.086z" style="fill:#73ff85;fill-opacity:1;stroke:none;stroke-width:.0264583px;stroke-linecap:butt;stroke-linejoin:miter;stroke-opacity:1"/><path d="m118.177 41.803-25.95 25.95a17.26 17.26 0 0 1 5.066 12.235c0 4.777-1.936 9.101-5.065 12.234l25.953 25.955 2.124-2.125a5.994 5.994 0 0 0 0-8.487l-7.145-7.136a38.8 38.8 0 0 0 4.752-11.442h10.083c3.312 0 6-2.689 6-6v-6.001a6 6 0 0 0-6-5.997h-10.092c-1.02-4.108-2.597-7.954-4.752-11.443l7.145-7.136a5.994 5.994 0 0 0 0-8.487z" style="fill:#6682ff;fill-opacity:1;stroke:none;stroke-width:.0264583px;stroke-linecap:butt;stroke-linejoin:miter;stroke-opacity:1"/><path d="M67.76 67.734 41.828 41.808l-2.129 2.13a6.003 6.003 0 0 0 0 8.483l7.138 7.145a38.7 38.7 0 0 0-4.747 11.445H32.004c-3.312 0-6 2.688-6 6v6c0 3.312 2.688 6 6 6h10.085a38.9 38.9 0 0 0 4.747 11.443l-7.138 7.134c-2.342 2.347-2.342 6.147 0 8.483l2.11 2.11 25.95-25.957a17.27 17.27 0 0 1-5.069-12.243c0-4.782 1.938-9.112 5.072-12.247" style="fill:#fbff73;fill-opacity:1;stroke:none;stroke-width:.0264583px;stroke-linecap:butt;stroke-linejoin:miter;stroke-opacity:1"/><path d="M79.978 56C66.723 56 55.97 66.746 55.97 80s10.75 24 24.007 24c13.255 0 24.007-10.746 24.007-24s-10.75-24-24.007-24m.006 6.685c9.565 0 17.32 7.753 17.32 17.315s-7.757 17.315-17.32 17.315S62.664 89.563 62.664 80c0-9.562 7.757-17.315 17.32-17.315" style="display:inline;fill:#a869c9;fill-opacity:1;stroke:none;stroke-width:2.16466"/></svg>