<?xml version="1.0" encoding="UTF-8" standalone="no"?>
<svg
   width="160cm"
   height="160cm"
   viewBox="0 0 160 160"
   version="1.1"
   id="svg2"
   sodipodi:docname="alchemical_assembly.svg"
   inkscape:version="1.3.2 (091e20ef0f, 2023-11-25, custom)"
   xmlns:inkscape="http://www.inkscape.org/namespaces/inkscape"
   xmlns:sodipodi="http://sodipodi.sourceforge.net/DTD/sodipodi-0.dtd"
   xmlns="http://www.w3.org/2000/svg"
   xmlns:svg="http://www.w3.org/2000/svg">
  <defs
     id="defs2" />
  <sodipodi:namedview
     id="namedview2"
     pagecolor="#505050"
     bordercolor="#eeeeee"
     borderopacity="1"
     inkscape:showpageshadow="0"
     inkscape:pageopacity="0"
     inkscape:pagecheckerboard="0"
     inkscape:deskcolor="#d1d1d1"
     inkscape:document-units="cm"
     inkscape:zoom="0.070197265"
     inkscape:cx="997.18985"
     inkscape:cy="3867.6721"
     inkscape:window-width="1870"
     inkscape:window-height="1052"
     inkscape:window-x="0"
     inkscape:window-y="0"
     inkscape:window-maximized="1"
     inkscape:current-layer="svg2" />
  <path
     id="path1"
     style="display:inline;fill:#402f1f;fill-opacity:1;stroke-width:0.206084;stroke-linecap:round;stroke-linejoin:bevel;stroke-dasharray:0.206084, 1.2365"
     d="M 159.99949,80.000465 A 79.999519,79.999519 0 0 1 79.999969,159.99998 79.999519,79.999519 0 0 1 4.5013428e-4,80.000465 79.999519,79.999519 0 0 1 79.999969,9.4604492e-4 79.999519,79.999519 0 0 1 159.99949,80.000465 Z" />
  <path
     id="path2"
     style="fill:#ff6666;fill-opacity:1;stroke:none;stroke-width:0.0264583px;stroke-linecap:butt;stroke-linejoin:miter;stroke-opacity:1"
     d="m 77.002464,26.000466 c -3.311817,0 -5.999789,2.688319 -5.999789,6.000306 v 10.085689 c -4.105726,0.975086 -7.950622,2.592005 -11.445038,4.746325 l -7.133983,-7.136515 c -2.347758,-2.342532 -6.147251,-2.342532 -8.483668,0 l -2.127312,2.12726 25.925962,25.933094 c 3.1346,-3.133318 7.464533,-5.071421 12.245868,-5.071421 4.780581,0 9.109062,1.936919 12.243232,5.068373 L 118.18072,41.80777 116.06581,39.692912 c -2.34778,-2.342555 -6.14723,-2.342555 -8.48366,0 l -7.13399,7.136464 C 96.955088,44.674986 93.110244,43.058167 89.002248,42.086461 V 32.000772 c 0,-3.311987 -2.688086,-6.000306 -5.999892,-6.000306 z" />
  <path
     id="path3"
     style="fill:#73ff85;fill-opacity:1;stroke:none;stroke-width:0.0264583px;stroke-linecap:butt;stroke-linejoin:miter;stroke-opacity:1"
     d="m 41.801027,118.16505 2.121628,2.12168 c 2.342531,2.34773 6.144368,2.34774 8.486923,0.002 l 7.136464,-7.13399 c 3.488882,2.15501 7.334952,3.7768 11.439043,4.74085 v 10.08292 c 0,3.31181 2.688351,5.99984 6.000354,5.99984 h 6.00041 c 3.31199,0 6.00036,-2.68803 6.00036,-5.99984 v -10.08284 c 4.10454,-1.02069 7.9506,-2.59727 11.438991,-4.75222 l 7.13652,7.1453 c 2.3403,2.33641 6.14437,2.33643 8.48693,-0.003 l 2.12013,-2.12023 -25.929181,-25.931392 c -3.13435,3.141666 -7.46751,5.08615 -12.25496,5.08615 -4.78699,0 -9.119979,-1.944629 -12.254342,-5.08615 z" />
  <path
     id="path4"
     style="fill:#6682ff;fill-opacity:1;stroke:none;stroke-width:0.0264583px;stroke-linecap:butt;stroke-linejoin:miter;stroke-opacity:1"
     d="M 118.17654,41.80312 92.227736,67.753577 c 3.129614,3.132749 5.065479,7.457697 5.065479,12.234706 0,4.776543 -1.936061,9.101199 -5.06553,12.23393 l 25.953045,25.954697 2.12468,-2.12462 c 2.34776,-2.34256 2.34776,-6.14437 0,-8.48693 l -7.14536,-7.13651 c 2.15503,-3.488876 3.77686,-7.334945 4.75227,-11.442099 h 10.08285 c 3.31179,0 5.99979,-2.68837 5.99979,-6.000357 v -6.000357 c 0,-3.308582 -2.688,-5.996947 -5.99979,-5.996947 l -0.009,-8.27e-4 h -10.0829 c -1.02067,-4.106815 -2.59731,-7.952884 -4.75226,-11.441989 l 7.1454,-7.136463 c 2.34776,-2.342556 2.34776,-6.144339 0,-8.486872 z" />
  <path
     id="path5"
     style="fill:#fbff73;fill-opacity:1;stroke:none;stroke-width:0.0264583px;stroke-linecap:butt;stroke-linejoin:miter;stroke-opacity:1"
     d="m 67.760591,67.734313 -25.933298,-25.926169 -2.12907,2.129172 c -2.34029,2.336398 -2.34029,6.147219 0,8.483617 l 7.1376,7.145352 c -2.15664,3.493266 -3.77462,7.33814 -4.74633,11.444986 H 32.003802 c -3.31198,0 -6.000304,2.688034 -6.000304,5.999841 l -1e-6,5.999892 c 0,3.311786 2.688325,5.999789 6.000305,5.999789 h 10.085691 c 0.97508,4.105755 2.591999,7.950617 4.746329,11.442767 l -7.1376,7.13398 c -2.34254,2.34773 -2.342538,6.14725 10e-7,8.48367 l 2.10995,2.11 25.95004,-25.957125 c -3.131832,-3.134422 -5.068992,-7.463168 -5.068992,-12.243233 -1e-6,-4.782193 1.938059,-9.112138 5.07137,-12.246539 z" />
  <path
     id="path1-3"
     style="display:inline;fill:#a869c9;fill-opacity:1;stroke:none;stroke-width:2.16466"
     d="m 79.97794,56.00002 c -13.255132,0 -24.007146,10.746044 -24.007146,24.000001 0,13.25441 10.749737,23.999959 24.007146,23.999959 13.255141,0 24.00723,-10.746001 24.00723,-23.999959 0,-13.254408 -10.74981,-24.000001 -24.00723,-24.000001 z m 0.0062,6.685223 c 9.564629,0 17.32012,7.752449 17.32012,17.314909 0,9.562136 -7.75713,17.314912 -17.32012,17.314912 -9.564631,0 -17.320124,-7.75245 -17.320124,-17.314912 0,-9.562134 7.757135,-17.314909 17.320124,-17.314909 z"
     inkscape:label="path1-3" />
</svg>
