<?xml version="1.0" encoding="UTF-8" standalone="no"?>
<svg
   width="160cm"
   height="160cm"
   viewBox="0 0 160 160"
   version="1.1"
   id="svg2"
   sodipodi:docname="networking_assembly.svg"
   inkscape:version="1.3.2 (091e20ef0f, 2023-11-25, custom)"
   xmlns:inkscape="http://www.inkscape.org/namespaces/inkscape"
   xmlns:sodipodi="http://sodipodi.sourceforge.net/DTD/sodipodi-0.dtd"
   xmlns="http://www.w3.org/2000/svg"
   xmlns:svg="http://www.w3.org/2000/svg">
  <defs
     id="defs2" />
  <sodipodi:namedview
     id="namedview2"
     pagecolor="#505050"
     bordercolor="#eeeeee"
     borderopacity="1"
     inkscape:showpageshadow="0"
     inkscape:pageopacity="0"
     inkscape:pagecheckerboard="0"
     inkscape:deskcolor="#d1d1d1"
     inkscape:document-units="cm"
     inkscape:zoom="0.099273924"
     inkscape:cx="2850.6982"
     inkscape:cy="4014.1457"
     inkscape:window-width="1870"
     inkscape:window-height="1052"
     inkscape:window-x="0"
     inkscape:window-y="0"
     inkscape:window-maximized="1"
     inkscape:current-layer="svg2" />
  <path
     id="path1"
     style="display:inline;fill:#686868;fill-opacity:1;stroke-width:0.206084;stroke-linecap:round;stroke-linejoin:bevel;stroke-dasharray:0.206084, 1.2365"
     d="M 159.99949,80.000465 A 79.999519,79.999519 0 0 1 79.999969,159.99998 79.999519,79.999519 0 0 1 4.5013428e-4,80.000465 79.999519,79.999519 0 0 1 79.999969,9.4604492e-4 79.999519,79.999519 0 0 1 159.99949,80.000465 Z" />
  <path
     id="path3"
     style="display:inline;fill:#fffb8b;fill-opacity:1;stroke:none;stroke-width:0.0264583px;stroke-linecap:butt;stroke-linejoin:miter;stroke-opacity:1"
     inkscape:label="path3"
     d="M 88.583534 29.856937 L 35.564031 89.001596 L 42.082703 89.001596 C 43.103386 93.106135 44.679982 96.95225 46.834919 100.44064 L 39.689619 107.5771 C 37.353205 109.9174 37.353191 113.72147 39.692823 116.06403 L 41.81445 118.18555 L 67.744754 92.255247 C 64.602948 89.120868 62.658294 84.787596 62.658294 80.000026 C 62.658294 70.438003 70.41535 62.685218 79.978219 62.685218 C 84.76515 62.685218 89.098499 64.627553 92.233647 67.766355 L 118.18333 41.816672 L 116.05953 39.692926 C 113.71174 37.350373 109.9123 37.350373 107.57586 39.692926 L 100.44188 46.82939 C 96.948804 44.675002 93.103959 43.05818 88.995963 42.086475 L 88.995963 32.000786 C 88.995963 31.242991 88.840251 30.524704 88.583534 29.856937 z " />
  <path
     id="path6"
     style="display:inline;fill:#aaf2da;fill-opacity:1;stroke:none;stroke-width:3.00043"
     d="M 118.18333 41.816672 L 92.233647 67.766355 C 95.362672 70.899026 97.298195 75.223528 97.298195 80.000026 C 97.298195 89.56204 89.541083 97.314784 79.978219 97.314784 C 75.202364 97.314784 70.878164 95.381251 67.744754 92.255247 L 41.81445 118.18555 L 43.934683 120.30573 C 46.271069 122.64602 50.081909 122.64602 52.418299 120.30573 L 59.563651 113.16818 C 63.056905 115.32482 66.901801 116.94275 71.008637 117.91446 L 71.008637 124.75388 L 117.82351 70.704987 C 116.80125 66.710617 115.25845 62.962215 113.15599 59.55807 L 120.30139 52.421606 C 122.64915 50.079057 122.64915 46.27721 120.30139 43.934683 L 118.18333 41.816672 z " />
  <path
     id="path8"
     style="display:inline;fill:#c2a7ef;fill-opacity:1;stroke:none;stroke-width:3.00043"
     d="M 117.73876,70.409917 70.92389,124.45881 v 3.24627 c 0,3.31196 2.68804,6.0003 5.99984,6.0003 h 5.99989 c 3.31178,0 5.99979,-2.68834 5.99979,-6.0003 v -10.08569 c 4.10575,-0.97508 7.95063,-2.59195 11.44276,-4.74628 l 7.13399,7.13755 c 2.3477,2.34254 6.14727,2.34254 8.48366,0 l 4.24181,-4.2417 c 2.34777,-2.34256 2.34777,-6.14437 0,-8.48693 l -7.14535,-7.13646 c 2.15503,-3.488863 3.77686,-7.335003 4.75227,-11.442143 h 10.08285 c 3.31176,0 5.99978,-2.68833 5.99978,-6.00031 v -6.00041 c 0,-3.30857 -2.68802,-5.99694 -5.99978,-5.99694 l -0.009,-7.8e-4 h -10.08289 c -0.0249,-0.1 -0.0592,-0.19539 -0.0848,-0.29507 z" />
  <path
     id="path1-3-6"
     style="display:inline;fill:#ff9b9d;fill-opacity:1;stroke:none;stroke-width:3.00043"
     d="m 76.996179,26.00048 c -3.311815,0 -5.999789,2.688319 -5.999789,6.000306 v 10.085689 c -4.105722,0.975086 -7.950626,2.592004 -11.445038,4.746325 l -7.133983,-7.136515 c -2.347756,-2.342532 -6.147254,-2.342532 -8.483668,0 l -4.24186,4.241757 c -2.347737,2.342531 -2.347745,6.144368 -0.0022,8.486923 l 7.133983,7.136516 c -2.155007,3.488881 -3.776796,7.3349 -4.740848,11.438991 h -10.08292 c -3.311805,0 -5.999841,2.688403 -5.999841,6.000409 v 6.000358 c 0,3.311984 2.688036,6.000357 5.999841,6.000357 h 3.564175 L 88.583534,29.856937 C 87.718251,27.606191 85.550122,26.00048 82.996071,26.00048 Z" />
  <path
     id="path1-3"
     style="display:inline;fill:#ffffff;fill-opacity:1;stroke:none;stroke-width:2.16466"
     d="m 79.97794,56.00002 c -13.255132,0 -24.007146,10.746044 -24.007146,24.000001 0,13.25441 10.749737,23.999959 24.007146,23.999959 13.255141,0 24.00723,-10.746001 24.00723,-23.999959 0,-13.254408 -10.74981,-24.000001 -24.00723,-24.000001 z m 0.0062,6.685223 c 9.564629,0 17.32012,7.752449 17.32012,17.314909 0,9.562136 -7.75713,17.314912 -17.32012,17.314912 -9.564631,0 -17.320124,-7.75245 -17.320124,-17.314912 0,-9.562134 7.757135,-17.314909 17.320124,-17.314909 z"
     inkscape:label="path1-3" />
</svg>
