<svg xmlns="http://www.w3.org/2000/svg" width="160cm" height="160cm" viewBox="0 0 160 160"><path d="M160 80a80 80 0 0 1-80 80A80 80 0 0 1 0 80 80 80 0 0 1 80 0a80 80 0 0 1 80 80" style="display:inline;fill:#686868;fill-opacity:1;stroke-width:.206084;stroke-linecap:round;stroke-linejoin:bevel;stroke-dasharray:.206084,1.2365"/><path d="m88.584 29.857-53.02 59.145h6.519c1.02 4.104 2.597 7.95 4.752 11.439l-7.145 7.136a6.01 6.01 0 0 0 .003 8.487l2.121 2.122 25.93-25.93A17.26 17.26 0 0 1 62.659 80c0-9.562 7.757-17.315 17.32-17.315 4.787 0 9.12 1.943 12.256 5.081l25.95-25.95-2.124-2.123c-2.348-2.343-6.148-2.343-8.484 0l-7.134 7.136a38.8 38.8 0 0 0-11.446-4.743V32.001a6 6 0 0 0-.412-2.144" style="display:inline;fill:#fffb8b;fill-opacity:1;stroke:none;stroke-width:.0264583px;stroke-linecap:butt;stroke-linejoin:miter;stroke-opacity:1"/><path d="m118.183 41.817-25.95 25.95A17.26 17.26 0 0 1 97.299 80c0 9.562-7.757 17.315-17.32 17.315-4.776 0-9.1-1.934-12.233-5.06l-25.93 25.93 2.12 2.12a6.003 6.003 0 0 0 8.483 0l7.146-7.137a38.7 38.7 0 0 0 11.445 4.746v6.84l46.815-54.049c-1.023-3.994-2.566-7.743-4.668-11.147l7.145-7.136a5.994 5.994 0 0 0 0-8.487z" style="display:inline;fill:#aaf2da;fill-opacity:1;stroke:none;stroke-width:3.00043"/><path d="m117.739 70.41-46.815 54.049v3.246c0 3.312 2.688 6 6 6h6c3.311 0 6-2.688 6-6V117.62a38.9 38.9 0 0 0 11.442-4.746l7.134 7.138c2.348 2.342 6.147 2.342 8.484 0l4.242-4.242a5.994 5.994 0 0 0 0-8.487l-7.146-7.136a38.8 38.8 0 0 0 4.753-11.443h10.082c3.312 0 6-2.688 6-6v-6a6 6 0 0 0-6-5.997l-.009-.001h-10.082c-.025-.1-.06-.195-.085-.295" style="display:inline;fill:#c2a7ef;fill-opacity:1;stroke:none;stroke-width:3.00043"/><path d="M76.996 26c-3.312 0-6 2.689-6 6v10.086a38.9 38.9 0 0 0-11.445 4.747l-7.134-7.137c-2.347-2.342-6.147-2.342-8.483 0l-4.242 4.242a5.996 5.996 0 0 0-.002 8.487l7.134 7.136a38.5 38.5 0 0 0-4.741 11.44H32c-3.312 0-6 2.688-6 6v6c0 3.312 2.688 6 6 6h3.564l53.02-59.144C87.718 27.607 85.55 26 82.996 26Z" style="display:inline;fill:#ff9b9d;fill-opacity:1;stroke:none;stroke-width:3.00043"/><path d="M79.978 56C66.723 56 55.97 66.746 55.97 80s10.75 24 24.007 24c13.255 0 24.007-10.746 24.007-24s-10.75-24-24.007-24m.006 6.685c9.565 0 17.32 7.753 17.32 17.315s-7.757 17.315-17.32 17.315S62.664 89.563 62.664 80c0-9.562 7.757-17.315 17.32-17.315" style="display:inline;fill:#fff;fill-opacity:1;stroke:none;stroke-width:2.16466"/></svg>