<?xml version="1.0" encoding="UTF-8" standalone="no"?>
<svg
   width="160cm"
   height="160cm"
   viewBox="0 0 160 160"
   version="1.1"
   id="svg2"
   sodipodi:docname="white_mechwork.svg"
   inkscape:version="1.3.2 (091e20ef0f, 2023-11-25, custom)"
   xmlns:inkscape="http://www.inkscape.org/namespaces/inkscape"
   xmlns:sodipodi="http://sodipodi.sourceforge.net/DTD/sodipodi-0.dtd"
   xmlns="http://www.w3.org/2000/svg"
   xmlns:svg="http://www.w3.org/2000/svg">
  <defs
     id="defs2" />
  <sodipodi:namedview
     id="namedview2"
     pagecolor="#505050"
     bordercolor="#eeeeee"
     borderopacity="1"
     inkscape:showpageshadow="0"
     inkscape:pageopacity="0"
     inkscape:pagecheckerboard="0"
     inkscape:deskcolor="#d1d1d1"
     inkscape:document-units="cm"
     inkscape:zoom="0.070197265"
     inkscape:cx="1524.2759"
     inkscape:cy="2585.5708"
     inkscape:window-width="1872"
     inkscape:window-height="1052"
     inkscape:window-x="1920"
     inkscape:window-y="0"
     inkscape:window-maximized="1"
     inkscape:current-layer="svg2" />
  <path
     id="path1"
     style="fill:#e5e5e5;stroke-width:0.206084;stroke-linecap:round;stroke-linejoin:bevel;stroke-dasharray:0.206084, 1.2365"
     d="M 159.99949,80.000465 A 79.999519,79.999519 0 0 1 79.999969,159.99998 79.999519,79.999519 0 0 1 4.5013428e-4,80.000465 79.999519,79.999519 0 0 1 79.999969,9.4604492e-4 79.999519,79.999519 0 0 1 159.99949,80.000465 Z" />
  <path
     id="path1-3-6"
     style="fill:#a6a6a6;fill-opacity:1;stroke:none;stroke-width:3.00043"
     d="m 76.996197,26.000474 c -3.311818,0 -5.99981,2.688344 -5.99981,6.000334 v 10.085681 c -4.105726,0.975087 -7.950601,2.591979 -11.445016,4.746302 l -7.134009,-7.136502 c -2.347758,-2.342534 -6.147251,-2.342534 -8.483668,0 l -4.241857,4.241768 c -2.347739,2.342534 -2.347725,6.144347 -0.0022,8.486905 l 7.133964,7.136502 c -2.155009,3.488885 -3.776781,7.334921 -4.740834,11.439017 H 31.999854 C 28.688046,71.000481 26,73.688847 26,77.000857 v 6.000378 c 0,3.311988 2.688046,6.000376 5.999854,6.000376 h 10.08284 c 1.020685,4.104547 2.597271,7.950613 4.752212,11.439009 l -7.145302,7.13647 c -2.336418,2.3403 -2.33644,6.14439 0.0032,8.48695 l 4.241856,4.24171 c 2.336395,2.34029 6.14723,2.34029 8.483626,0 l 7.145388,-7.13759 c 3.493263,2.15664 7.338125,3.77459 11.444973,4.7463 v 10.08568 c 0,3.31199 2.688046,6.00033 5.999854,6.00033 h 5.999853 c 3.311784,0 5.99981,-2.68834 5.99981,-6.00033 v -10.08568 c 4.10576,-0.97508 7.950597,-2.59197 11.442746,-4.7463 l 7.13401,7.13759 c 2.34773,2.34254 6.14724,2.34254 8.48366,0 l 4.24181,-4.24171 c 2.34777,-2.34256 2.34777,-6.14439 0,-8.48695 l -7.14534,-7.13647 c 2.15503,-3.488871 3.77686,-7.334958 4.75227,-11.442116 h 10.08283 c 3.31179,0 5.99981,-2.688343 5.99981,-6.000333 v -6.000377 c 0,-3.308585 -2.68802,-5.996964 -5.99981,-5.996964 l -0.009,-7.87e-4 h -10.08289 c -1.02068,-4.106819 -2.5973,-7.952885 -4.75225,-11.441993 l 7.14538,-7.136459 c 2.34776,-2.342558 2.34776,-6.144368 0,-8.486904 l -4.24184,-4.241767 c -2.34779,-2.342557 -6.14725,-2.342557 -8.48369,0 l -7.134,7.136458 C 96.948778,44.674986 93.103949,43.058196 88.995945,42.086489 V 32.000808 c 0,-3.31199 -2.688046,-6.000334 -5.999853,-6.000334 z m 2.982005,36.684751 c 9.564538,0 17.320005,7.752426 17.320005,17.314793 0,9.562041 -7.757111,17.314748 -17.320005,17.314748 -9.564532,0 -17.319917,-7.75238 -17.319917,-17.314748 0,-9.562043 7.757028,-17.314793 17.319917,-17.314793 z" />
  <path
     id="path1-3"
     style="fill:#808080;fill-opacity:1;stroke:none;stroke-width:2.16466"
     d="m 79.97794,56.00002 c -13.255132,0 -24.007146,10.746044 -24.007146,24.000001 0,13.25441 10.749737,23.999959 24.007146,23.999959 13.255141,0 24.00723,-10.746001 24.00723,-23.999959 0,-13.254408 -10.74981,-24.000001 -24.00723,-24.000001 z m 0.0062,6.685223 c 9.564629,0 17.32012,7.752449 17.32012,17.314909 0,9.562136 -7.75713,17.314912 -17.32012,17.314912 -9.564631,0 -17.320124,-7.75245 -17.320124,-17.314912 0,-9.562134 7.757135,-17.314909 17.320124,-17.314909 z" />
</svg>
