<svg xmlns="http://www.w3.org/2000/svg" width="160cm" height="160cm" viewBox="0 0 160 160"><path d="M160 80a80 80 0 0 1-80 80A80 80 0 0 1 0 80 80 80 0 0 1 80 0a80 80 0 0 1 80 80" style="fill:#e5e5e5;stroke-width:.206084;stroke-linecap:round;stroke-linejoin:bevel;stroke-dasharray:.206084,1.2365"/><path d="M76.996 26c-3.312 0-6 2.689-6 6v10.086a38.9 38.9 0 0 0-11.445 4.747l-7.134-7.137c-2.347-2.342-6.147-2.342-8.483 0l-4.242 4.242a5.996 5.996 0 0 0-.002 8.487l7.134 7.136a38.5 38.5 0 0 0-4.741 11.44H32c-3.312 0-6 2.688-6 6v6c0 3.312 2.688 6 6 6h10.083c1.02 4.105 2.597 7.951 4.752 11.44l-7.145 7.136a6.01 6.01 0 0 0 .003 8.487l4.242 4.242a6.003 6.003 0 0 0 8.483 0l7.146-7.138a38.7 38.7 0 0 0 11.445 4.746V128c0 3.312 2.688 6 6 6h6c3.311 0 6-2.688 6-6v-10.086a38.9 38.9 0 0 0 11.442-4.746l7.134 7.138c2.348 2.342 6.147 2.342 8.484 0l4.241-4.242a5.994 5.994 0 0 0 0-8.487l-7.145-7.136a38.8 38.8 0 0 0 4.752-11.442H128c3.312 0 6-2.689 6-6v-6.001A6 6 0 0 0 128 71l-.009-.001h-10.083c-1.02-4.107-2.597-7.953-4.752-11.442l7.145-7.136a5.994 5.994 0 0 0 0-8.487l-4.241-4.242c-2.348-2.343-6.148-2.343-8.484 0l-7.134 7.136a38.8 38.8 0 0 0-11.446-4.743V32.001c0-3.312-2.688-6-6-6zm2.982 36.685c9.565 0 17.32 7.753 17.32 17.315s-7.757 17.315-17.32 17.315S62.658 89.562 62.658 80s7.757-17.315 17.32-17.315" style="fill:#a6a6a6;fill-opacity:1;stroke:none;stroke-width:3.00043"/><path d="M79.978 56C66.723 56 55.97 66.746 55.97 80s10.75 24 24.007 24c13.255 0 24.007-10.746 24.007-24s-10.75-24-24.007-24m.006 6.685c9.565 0 17.32 7.753 17.32 17.315s-7.757 17.315-17.32 17.315S62.664 89.563 62.664 80c0-9.562 7.757-17.315 17.32-17.315" style="fill:gray;fill-opacity:1;stroke:none;stroke-width:2.16466"/></svg>